<?xml version="1.0" encoding="utf-8"?>
<!DOCTYPE svg PUBLIC "-//W3C//DTD SVG 1.1//EN" "http://www.w3.org/Graphics/SVG/1.1/DTD/svg11.dtd">
<svg version="1.1" xmlns="http://www.w3.org/2000/svg" xmlns:xlink="http://www.w3.org/1999/xlink" viewBox="0 0 32 32" preserveAspectRatio="xMinYMin" width="32" height="32">
	<path fill="rgb(87,87,87)" d="M28-0.001H4C1.791-0.001,0,1.79,0,4v19.999
		C0,26.207,1.791,28,4,28h0.101c0.463,2.281,2.48,3.998,4.899,3.998c2.418,0,4.435-1.717,4.899-3.998h4.202
		c0.464,2.281,2.48,3.998,4.899,3.998s4.436-1.717,4.899-3.998H28c2.209,0,4-1.793,4-4.001V4C32,1.79,30.209-0.001,28-0.001z
			M2,7.999h4v9.999H2V7.999z M9,29.998c-1.657,0-3-1.342-3-2.999s1.343-3,3-3c1.657,0,3,1.343,3,3S10.657,29.998,9,29.998z
			M23,29.998c-1.656,0-3-1.342-3-2.999s1.344-3,3-3s3,1.343,3,3S24.656,29.998,23,29.998z M30,23.999c0,1.104-0.896,1.999-2,1.999
		h-0.101c-0.464-2.282-2.48-3.999-4.899-3.999s-4.436,1.717-4.899,3.999h-4.202c-0.463-2.282-2.48-3.999-4.899-3.999
		c-2.419,0-4.436,1.717-4.899,3.999H4c-1.104,0-2-0.895-2-1.999v-4h28V23.999z M8,17.998V7.999h6v9.999H8z M16,17.998V7.999h6
		v9.999H16z M30,17.998h-6V7.999h6V17.998z M30,5.999H2V4c0-1.105,0.896-2.002,2-2.002h24c1.104,0,2,0.896,2,2.002V5.999z"/>
</svg>
