<?xml version="1.0" encoding="utf-8"?>
<!-- Generator: Adobe Illustrator 21.0.2, SVG Export Plug-In . SVG Version: 6.00 Build 0)  -->
<svg version="1.1" id="Layer_1" xmlns="http://www.w3.org/2000/svg" xmlns:xlink="http://www.w3.org/1999/xlink" x="0px" y="0px"
	 viewBox="0 0 32 32" style="enable-background:new 0 0 32 32;" xml:space="preserve">
<style type="text/css">
	.st0{fill-rule:evenodd;clip-rule:evenodd;}
</style>
<g id="interface_-_plus_add_3_">
	<g>
		<path class="st0" d="M22.5,15H17V9.5c0-0.5-0.4-1-1-1c-0.5,0-1,0.4-1,1V15H9.5c-0.5,0-1,0.4-1,1c0,0.5,0.4,1,1,1H15v5.5
			c0,0.5,0.4,1,1,1c0.5,0,1-0.4,1-1V17h5.5c0.5,0,1-0.4,1-1C23.5,15.5,23.1,15,22.5,15z M16,0C7.2,0,0,7.2,0,16c0,8.8,7.2,16,16,16
			c8.8,0,16-7.2,16-16C32,7.2,24.8,0,16,0z M16,30C8.3,30,2,23.7,2,16C2,8.3,8.3,2,16,2s14,6.3,14,14C30,23.7,23.7,30,16,30z"/>
	</g>
</g>
</svg>
