<?xml version="1.0" encoding="utf-8"?>
<!-- Generator: Adobe Illustrator 21.0.2, SVG Export Plug-In . SVG Version: 6.00 Build 0)  -->
<svg version="1.1" id="Layer_1" xmlns="http://www.w3.org/2000/svg" xmlns:xlink="http://www.w3.org/1999/xlink" x="0px" y="0px"
	 viewBox="0 0 32 32" style="enable-background:new 0 0 32 32;" xml:space="preserve">
<style type="text/css">
	.st0{fill-rule:evenodd;clip-rule:evenodd;}
</style>
<g id="document_-_download_arrow">
	<g>
		<path class="st0" d="M15.2,25.5c0,0.1,0.1,0.1,0.1,0.2c0.2,0.2,0.4,0.3,0.7,0.3c0,0,0,0,0,0c0,0,0,0,0,0c0.3,0,0.5-0.1,0.7-0.3
			c0.1-0.1,0.1-0.1,0.1-0.2l9.9-10.9c0.4-0.4,0.4-1,0-1.4c-0.4-0.4-1-0.4-1.4,0L17,22.4V1c0-0.6-0.4-1-1-1c-0.6,0-1,0.4-1,1v21.5
			l-8.3-9.2c-0.4-0.4-1-0.4-1.4,0c-0.4,0.4-0.4,1,0,1.4L15.2,25.5z M28,30H4c-0.6,0-1,0.4-1,1c0,0.6,0.4,1,1,1h24c0.6,0,1-0.4,1-1
			C29,30.4,28.6,30,28,30z"/>
	</g>
</g>
</svg>
