<?xml version="1.0" encoding="utf-8"?>
<!-- Generator: Adobe Illustrator 21.0.2, SVG Export Plug-In . SVG Version: 6.00 Build 0)  -->
<svg version="1.1" id="Layer_1" xmlns="http://www.w3.org/2000/svg" xmlns:xlink="http://www.w3.org/1999/xlink" x="0px" y="0px"
	 viewBox="0 0 32 32" style="enable-background:new 0 0 32 32;" xml:space="preserve">
<path d="M30.1,5.4H1.9C0.9,5.4,0,6.2,0,7.3V24C0,25.1,0.9,26,1.9,26h7.6c0.6,0,1-0.4,1.3-0.7l2.9-5.7c0-0.1,0.1-0.1,0.1-0.2
	c0.1-0.2,0.3-0.5,0.4-0.7c0.4-0.6,1-1,1.7-1h0l0,0c0.8,0,1.3,0.4,1.7,1c0.2,0.2,0.3,0.4,0.4,0.7c0,0.1,0.1,0.1,0.1,0.2l2.9,5.7
	c0.3,0.4,0.7,0.7,1.3,0.7h7.6c1.1,0,1.9-0.9,1.9-1.9V7.3C32,6.2,31.1,5.4,30.1,5.4z M8.6,18.8c-2.1,0-3.8-1.9-3.4-4
	c0.3-1.3,1.3-2.4,2.7-2.7c0.2,0,0.4,0,0.5-0.1c0.1,0,0.1,0,0.2,0c0.1,0,0.1,0,0.2,0c0.2,0,0.4,0,0.5,0.1c1.3,0.3,2.4,1.3,2.7,2.7
	C12.4,17,10.8,18.9,8.6,18.8z M23.4,18.8c-2.1,0-3.8-1.9-3.4-4c0.3-1.3,1.3-2.4,2.7-2.7c0.2,0,0.4,0,0.5-0.1c0.1,0,0.1,0,0.2,0
	c0.1,0,0.1,0,0.2,0c0.2,0,0.4,0,0.5,0.1c1.3,0.3,2.4,1.3,2.7,2.7C27.1,17,25.5,18.9,23.4,18.8z"/>
</svg>
